<?xml version="1.0" encoding="UTF-8" standalone="no"?>
<!DOCTYPE svg PUBLIC "-//W3C//DTD SVG 1.1//EN" "http://www.w3.org/Graphics/SVG/1.1/DTD/svg11.dtd">
<svg xmlns="http://www.w3.org/2000/svg" version="1.1" viewBox="0 0 690 549">
<g stroke-width="2.00" fill="none" stroke-linecap="butt">
<path stroke="#fef78c" vector-effect="non-scaling-stroke" d="
  M 636.59 211.66
  C 597.00 148.60 541.77 97.56 473.38 67.26
  C 446.70 55.44 417.25 47.86 388.42 43.76
  C 369.10 41.02 348.41 40.82 329.25 41.10
  Q 317.91 41.27 305.51 42.70
  C 301.15 43.20 294.99 45.09 289.33 45.05
  A 1.49 1.48 25.8 0 0 288.42 45.36
  C 285.75 47.43 282.88 46.90 280.40 47.40
  C 244.91 54.65 209.56 66.59 177.96 84.47
  C 139.55 106.21 106.64 133.01 77.27 165.92
  C 61.46 183.63 47.69 204.06 35.25 224.25
  A 0.64 0.64 0.0 0 0 35.49 225.15
  Q 50.21 232.75 65.16 239.68
  Q 103.99 257.68 142.62 276.07
  Q 144.05 276.75 146.65 278.37
  C 149.88 280.39 154.56 282.09 157.05 283.40
  C 159.45 284.66 163.03 286.91 165.69 287.01
  A 1.80 1.77 62.6 0 1 166.61 287.31
  C 173.12 291.66 181.26 294.48 188.25 298.18
  Q 191.63 299.97 194.01 300.69
  Q 196.18 301.34 196.80 299.16
  Q 198.30 293.90 201.92 289.74
  A 0.32 0.30 -27.1 0 0 202.00 289.51
  L 201.98 289.20
  A 1.20 1.16 61.0 0 1 202.17 288.49
  Q 225.74 250.96 265.02 230.30
  C 281.03 221.88 298.04 215.49 315.72 213.99
  Q 316.67 213.91 319.30 213.23
  C 322.62 212.37 326.24 212.68 329.87 211.99
  C 339.27 210.18 350.27 210.67 359.71 211.88
  C 363.75 212.41 368.16 212.86 372.09 213.94
  C 374.89 214.71 378.06 214.72 380.48 215.38
  C 388.82 217.64 400.38 219.73 409.58 224.29
  C 426.74 232.80 441.68 240.30 453.74 251.50
  Q 471.52 268.01 485.06 288.10
  C 485.25 288.39 485.25 288.54 485.26 288.86
  A 1.88 1.86 29.1 0 0 485.53 289.79
  L 493.85 303.36
  A 1.76 1.75 57.9 0 0 496.30 303.93
  Q 498.42 302.57 500.69 301.61
  C 502.73 300.74 505.37 300.46 507.67 298.60
  A 1.65 1.63 22.3 0 1 508.54 298.24
  Q 510.33 298.08 510.92 297.66
  C 517.96 292.75 526.19 290.02 534.82 285.37
  C 536.12 284.67 537.63 283.25 539.40 282.70
  C 545.31 280.87 551.01 276.97 554.83 275.09
  Q 566.87 269.18 626.65 240.29
  C 629.63 238.84 633.85 235.98 637.02 235.07
  Q 638.21 234.72 642.68 232.39
  Q 647.13 230.06 644.09 225.75
  Q 643.80 225.34 643.65 224.86
  Q 643.24 223.57 641.98 222.07
  C 639.53 219.15 638.44 214.62 636.59 211.66"
/>
<path stroke="#f78d91" vector-effect="non-scaling-stroke" d="
  M 339.8464 175.8887
  A 53.92 51.42 89.6 0 0 390.8887 121.6110
  A 53.92 51.42 89.6 0 0 339.0936 68.0513
  A 53.92 51.42 89.6 0 0 288.0513 122.3290
  A 53.92 51.42 89.6 0 0 339.8464 175.8887"
/>
</g>
<path fill="#fcef18" d="
  M 11.97 234.37
  C 58.12 136.27 142.51 65.42 246.49 34.20
  Q 264.14 28.90 277.91 26.68
  Q 278.31 26.61 282.99 25.50
  C 285.33 24.94 287.75 25.14 289.96 24.57
  Q 297.05 22.74 304.39 22.58
  C 305.78 22.55 306.92 21.71 308.26 21.57
  C 316.81 20.68 325.20 20.45 333.99 19.86
  Q 350.03 18.79 366.03 20.26
  C 373.15 20.91 381.47 20.48 389.31 22.33
  Q 391.89 22.93 394.74 22.84
  C 400.36 22.66 404.20 25.77 410.01 25.03
  Q 410.51 24.96 410.98 25.15
  Q 413.38 26.10 415.86 26.77
  C 417.84 27.30 420.92 26.89 423.32 27.84
  Q 425.16 28.57 426.30 28.72
  Q 434.44 29.77 440.82 32.43
  Q 444.27 33.88 447.04 34.01
  Q 447.53 34.03 447.95 34.30
  C 450.48 35.90 453.70 36.36 455.86 37.07
  C 514.68 56.28 569.28 94.44 609.24 141.63
  Q 642.79 181.25 667.07 228.68
  Q 669.86 234.11 671.09 237.30
  A 0.56 0.55 -24.3 0 1 670.82 237.99
  C 666.23 240.24 661.51 243.15 657.29 245.20
  C 586.85 279.46 516.46 313.93 445.95 347.96
  C 434.13 353.67 411.11 365.42 393.46 373.80
  C 365.85 386.91 338.48 400.49 310.99 413.85
  Q 246.66 445.12 223.33 456.60
  Q 217.01 459.71 211.37 461.28
  A 0.46 0.45 79.9 0 1 210.80 460.88
  Q 210.48 457.28 208.69 454.04
  Q 207.44 451.76 209.77 450.62
  C 255.11 428.42 300.29 405.90 345.81 384.25
  C 364.34 375.44 382.57 366.08 401.07 357.21
  Q 447.94 334.76 477.22 320.26
  Q 480.59 318.59 478.95 315.12
  Q 457.62 269.68 412.98 245.78
  C 403.74 240.84 395.50 237.95 384.76 234.78
  C 364.06 228.66 342.26 226.30 320.55 230.37
  C 316.99 231.03 313.30 231.38 309.96 232.25
  C 295.57 236.01 279.94 241.32 267.08 249.25
  C 243.22 263.94 224.79 284.99 212.59 310.14
  Q 210.93 313.56 210.08 317.03
  A 1.90 1.90 0.0 0 0 211.01 319.14
  Q 256.92 344.27 302.88 369.16
  Q 308.94 372.44 313.86 375.44
  Q 315.94 376.70 315.87 379.13
  L 315.61 389.07
  A 0.59 0.58 -74.0 0 1 314.73 389.56
  C 305.30 384.04 292.88 378.26 285.80 374.65
  C 194.71 328.20 103.47 281.96 12.39 235.58
  A 0.93 0.91 26.3 0 1 11.97 234.37
  Z
  M 636.59 211.66
  C 597.00 148.60 541.77 97.56 473.38 67.26
  C 446.70 55.44 417.25 47.86 388.42 43.76
  C 369.10 41.02 348.41 40.82 329.25 41.10
  Q 317.91 41.27 305.51 42.70
  C 301.15 43.20 294.99 45.09 289.33 45.05
  A 1.49 1.48 25.8 0 0 288.42 45.36
  C 285.75 47.43 282.88 46.90 280.40 47.40
  C 244.91 54.65 209.56 66.59 177.96 84.47
  C 139.55 106.21 106.64 133.01 77.27 165.92
  C 61.46 183.63 47.69 204.06 35.25 224.25
  A 0.64 0.64 0.0 0 0 35.49 225.15
  Q 50.21 232.75 65.16 239.68
  Q 103.99 257.68 142.62 276.07
  Q 144.05 276.75 146.65 278.37
  C 149.88 280.39 154.56 282.09 157.05 283.40
  C 159.45 284.66 163.03 286.91 165.69 287.01
  A 1.80 1.77 62.6 0 1 166.61 287.31
  C 173.12 291.66 181.26 294.48 188.25 298.18
  Q 191.63 299.97 194.01 300.69
  Q 196.18 301.34 196.80 299.16
  Q 198.30 293.90 201.92 289.74
  A 0.32 0.30 -27.1 0 0 202.00 289.51
  L 201.98 289.20
  A 1.20 1.16 61.0 0 1 202.17 288.49
  Q 225.74 250.96 265.02 230.30
  C 281.03 221.88 298.04 215.49 315.72 213.99
  Q 316.67 213.91 319.30 213.23
  C 322.62 212.37 326.24 212.68 329.87 211.99
  C 339.27 210.18 350.27 210.67 359.71 211.88
  C 363.75 212.41 368.16 212.86 372.09 213.94
  C 374.89 214.71 378.06 214.72 380.48 215.38
  C 388.82 217.64 400.38 219.73 409.58 224.29
  C 426.74 232.80 441.68 240.30 453.74 251.50
  Q 471.52 268.01 485.06 288.10
  C 485.25 288.39 485.25 288.54 485.26 288.86
  A 1.88 1.86 29.1 0 0 485.53 289.79
  L 493.85 303.36
  A 1.76 1.75 57.9 0 0 496.30 303.93
  Q 498.42 302.57 500.69 301.61
  C 502.73 300.74 505.37 300.46 507.67 298.60
  A 1.65 1.63 22.3 0 1 508.54 298.24
  Q 510.33 298.08 510.92 297.66
  C 517.96 292.75 526.19 290.02 534.82 285.37
  C 536.12 284.67 537.63 283.25 539.40 282.70
  C 545.31 280.87 551.01 276.97 554.83 275.09
  Q 566.87 269.18 626.65 240.29
  C 629.63 238.84 633.85 235.98 637.02 235.07
  Q 638.21 234.72 642.68 232.39
  Q 647.13 230.06 644.09 225.75
  Q 643.80 225.34 643.65 224.86
  Q 643.24 223.57 641.98 222.07
  C 639.53 219.15 638.44 214.62 636.59 211.66
  Z"
/>
<path fill="#ffffff" d="
  M 473.38 67.26
  C 541.77 97.56 597.00 148.60 636.59 211.66
  C 638.44 214.62 639.53 219.15 641.98 222.07
  Q 643.24 223.57 643.65 224.86
  Q 643.80 225.34 644.09 225.75
  Q 647.13 230.06 642.68 232.39
  Q 638.21 234.72 637.02 235.07
  C 633.85 235.98 629.63 238.84 626.65 240.29
  Q 566.87 269.18 554.83 275.09
  C 551.01 276.97 545.31 280.87 539.40 282.70
  C 537.63 283.25 536.12 284.67 534.82 285.37
  C 526.19 290.02 517.96 292.75 510.92 297.66
  Q 510.33 298.08 508.54 298.24
  A 1.65 1.63 22.3 0 0 507.67 298.60
  C 505.37 300.46 502.73 300.74 500.69 301.61
  Q 498.42 302.57 496.30 303.93
  A 1.76 1.75 57.9 0 1 493.85 303.36
  L 485.53 289.79
  A 1.88 1.86 29.1 0 1 485.26 288.86
  C 485.25 288.54 485.25 288.39 485.06 288.10
  Q 471.52 268.01 453.74 251.50
  C 441.68 240.30 426.74 232.80 409.58 224.29
  C 400.38 219.73 388.82 217.64 380.48 215.38
  C 378.06 214.72 374.89 214.71 372.09 213.94
  C 368.16 212.86 363.75 212.41 359.71 211.88
  C 350.27 210.67 339.27 210.18 329.87 211.99
  C 326.24 212.68 322.62 212.37 319.30 213.23
  Q 316.67 213.91 315.72 213.99
  C 298.04 215.49 281.03 221.88 265.02 230.30
  Q 225.74 250.96 202.17 288.49
  A 1.20 1.16 61.0 0 0 201.98 289.20
  L 202.00 289.51
  A 0.32 0.30 -27.1 0 1 201.92 289.74
  Q 198.30 293.90 196.80 299.16
  Q 196.18 301.34 194.01 300.69
  Q 191.63 299.97 188.25 298.18
  C 181.26 294.48 173.12 291.66 166.61 287.31
  A 1.80 1.77 62.6 0 0 165.69 287.01
  C 163.03 286.91 159.45 284.66 157.05 283.40
  C 154.56 282.09 149.88 280.39 146.65 278.37
  Q 144.05 276.75 142.62 276.07
  Q 103.99 257.68 65.16 239.68
  Q 50.21 232.75 35.49 225.15
  A 0.64 0.64 0.0 0 1 35.25 224.25
  C 47.69 204.06 61.46 183.63 77.27 165.92
  C 106.64 133.01 139.55 106.21 177.96 84.47
  C 209.56 66.59 244.91 54.65 280.40 47.40
  C 282.88 46.90 285.75 47.43 288.42 45.36
  A 1.49 1.48 25.8 0 1 289.33 45.05
  C 294.99 45.09 301.15 43.20 305.51 42.70
  Q 317.91 41.27 329.25 41.10
  C 348.41 40.82 369.10 41.02 388.42 43.76
  C 417.25 47.86 446.70 55.44 473.38 67.26
  Z
  M 339.8464 175.8887
  A 53.92 51.42 89.6 0 0 390.8887 121.6110
  A 53.92 51.42 89.6 0 0 339.0936 68.0513
  A 53.92 51.42 89.6 0 0 288.0513 122.3290
  A 53.92 51.42 89.6 0 0 339.8464 175.8887
  Z"
/>
<ellipse fill="#ef1a22" cx="0.00" cy="0.00" transform="translate(339.47,121.97) rotate(89.6)" rx="53.92" ry="51.42"/>
<path fill="#fcef18" d="
  M 338.68 256.50
  C 338.66 253.82 339.48 246.92 338.62 244.87
  A 0.46 0.45 -10.2 0 1 339.06 244.24
  L 339.56 244.26
  A 1.05 1.01 -64.0 0 0 340.30 243.99
  Q 341.94 242.53 343.96 243.34
  Q 345.63 244.00 345.65 245.80
  Q 346.06 282.95 346.01 320.06
  C 346.00 324.35 345.24 329.90 345.54 334.83
  A 1.31 1.31 0.0 0 1 344.24 336.22
  L 339.75 336.27
  A 1.31 1.30 -89.4 0 1 338.44 334.92
  Q 338.83 323.50 338.12 312.68
  C 337.97 310.31 338.70 308.01 338.72 306.00
  Q 338.91 281.25 338.68 256.50
  Z"
/>
<rect fill="#fcef18" x="-3.93" y="-47.32" transform="translate(392.05,303.57) rotate(30.1)" width="7.86" height="94.64" rx="1.14"/>
<path fill="#fcef18" d="
  M 266.42 266.30
  Q 265.15 265.87 265.24 264.53
  A 0.79 0.78 82.3 0 1 265.77 263.83
  L 271.25 261.92
  A 1.88 1.87 64.7 0 1 273.47 262.72
  Q 291.80 292.98 307.65 321.75
  C 311.17 328.14 315.74 335.33 319.52 342.29
  A 0.47 0.47 0.0 0 1 319.31 342.93
  L 312.97 345.96
  A 0.77 0.77 0.0 0 1 311.96 345.64
  C 297.54 319.25 282.19 293.41 267.45 267.15
  A 1.83 1.81 84.2 0 0 266.42 266.30
  Z"
/>
<path fill="#fcef18" d="
  M 398.13 417.36
  Q 396.14 416.23 396.83 414.05
  Q 397.74 411.19 400.40 410.18
  A 1.19 1.17 -40.6 0 1 401.40 410.25
  C 428.56 425.33 455.32 441.04 482.63 455.87
  Q 483.34 456.26 482.59 456.56
  L 480.85 457.25
  A 1.10 1.09 -89.2 0 0 480.23 457.86
  L 479.19 460.44
  Q 478.32 462.58 476.31 461.45
  L 398.13 417.36
  Z"
/>
<rect fill="#fcef18" x="-3.92" y="-47.03" transform="translate(390.56,478.23) rotate(-30.0)" width="7.84" height="94.06" rx="0.26"/>
<rect fill="#fcef18" x="-3.93" y="-47.14" transform="translate(292.77,478.08) rotate(30.0)" width="7.86" height="94.28" rx="0.26"/>
<rect fill="#fcef18" x="-3.71" y="-47.07" transform="translate(342.17,489.93) rotate(-0.1)" width="7.42" height="94.14" rx="2.36"/>
<path fill="#ffffff" d="
  M 159.69 549.00
  L 153.42 549.00
  Q 153.07 546.83 154.86 545.36
  A 1.25 1.21 27.0 0 1 155.74 545.09
  Q 159.14 545.38 159.69 549.00
  Z"
/>
</svg>
