<?xml version="1.0" encoding="UTF-8" standalone="no"?>
<!DOCTYPE svg PUBLIC "-//W3C//DTD SVG 1.1//EN" "http://www.w3.org/Graphics/SVG/1.1/DTD/svg11.dtd">
<svg xmlns="http://www.w3.org/2000/svg" version="1.1" viewBox="0 0 102 34">
<path fill="#ffffff" d="
  M 69.9119 16.4338
  A 7.82 7.82 0.0 0 1 61.9432 24.1022
  L 58.4239 24.0346
  A 7.82 7.82 0.0 0 1 50.7554 16.0659
  L 50.7881 14.3662
  A 7.82 7.82 0.0 0 1 58.7568 6.6978
  L 62.2761 6.7654
  A 7.82 7.82 0.0 0 1 69.9446 14.7341
  L 69.9119 16.4338
  Z
  M 65.4682 14.5445
  A 5.13 4.85 -9.6 0 0 59.6012 10.6179
  A 5.13 4.85 -9.6 0 0 55.3518 16.2555
  A 5.13 4.85 -9.6 0 0 61.2188 20.1821
  A 5.13 4.85 -9.6 0 0 65.4682 14.5445
  Z"
/>
<path fill="#ffffff" d="
  M 80.23 17.84
  L 79.90 22.14
  A 0.76 0.74 -10.9 0 1 79.46 22.77
  Q 77.94 23.45 76.43 22.72
  A 0.79 0.77 -77.3 0 1 76.00 22.02
  L 76.01 8.22
  A 1.48 1.48 0.0 0 1 77.76 6.76
  Q 80.90 7.34 79.85 10.87
  Q 79.11 13.39 81.73 13.24
  L 87.21 12.92
  A 0.69 0.69 0.0 0 0 87.86 12.31
  L 88.34 8.10
  A 0.96 0.93 82.5 0 1 88.90 7.35
  Q 90.60 6.62 92.46 7.20
  A 0.78 0.77 -81.3 0 1 93.00 7.94
  L 93.00 22.02
  A 0.70 0.70 0.0 0 1 92.42 22.71
  L 89.59 23.23
  Q 87.32 23.64 87.92 21.41
  Q 88.46 19.45 87.92 17.50
  A 0.75 0.75 0.0 0 0 87.17 16.95
  L 80.97 17.14
  A 0.76 0.76 0.0 0 0 80.23 17.84
  Z"
/>
<path fill="#ffffff" d="
  M 7.63 19.29
  C 8.92 19.51 19.35 21.37 17.93 17.47
  A 0.73 0.73 0.0 0 0 17.25 17.00
  L 11.04 17.00
  A 1.11 1.10 -18.1 0 1 10.15 16.55
  Q 9.20 15.21 10.28 13.58
  A 0.96 0.93 15.4 0 1 11.06 13.15
  L 17.17 12.93
  Q 18.21 12.90 17.64 12.02
  C 16.78 10.72 9.38 10.94 7.75 10.93
  A 0.55 0.55 0.0 0 1 7.21 10.33
  L 7.41 7.95
  A 0.78 0.77 89.6 0 1 8.09 7.25
  C 11.97 6.79 20.33 5.99 22.20 10.03
  C 23.49 12.83 23.66 17.57 21.84 20.32
  C 18.84 24.86 12.43 24.99 7.75 23.01
  A 0.98 0.97 9.2 0 1 7.16 22.20
  L 6.96 19.90
  A 0.58 0.57 2.0 0 1 7.63 19.29
  Z"
/>
<path fill="#ffffff" d="
  M 29.02 7.48
  A 0.47 0.46 -0.6 0 1 29.48 7.02
  Q 35.01 6.96 40.74 7.04
  C 45.90 7.10 45.62 13.77 44.52 16.85
  Q 43.81 18.84 41.71 18.89
  L 34.74 19.05
  A 0.68 0.68 0.0 0 0 34.08 19.70
  L 33.98 22.00
  A 0.97 0.96 -87.6 0 1 32.99 22.92
  L 29.81 22.83
  A 0.84 0.83 1.1 0 1 29.00 22.00
  L 29.02 7.48
  Z
  M 41.1589 12.2434
  A 1.32 1.32 0.0 0 0 39.8183 10.9443
  L 35.2389 11.0162
  A 1.32 1.32 0.0 0 0 33.9398 12.3568
  L 33.9611 13.7166
  A 1.32 1.32 0.0 0 0 35.3017 15.0157
  L 39.8811 14.9438
  A 1.32 1.32 0.0 0 0 41.1802 13.6032
  L 41.1589 12.2434
  Z"
/>
</svg>
